<svg width="38" height="53" viewBox="0 0 38 53" fill="none" xmlns="http://www.w3.org/2000/svg">
<path d="M14 19C14 16.2386 16.2386 14 19 14C21.7614 14 24 16.2386 24 19V53H14V19Z" fill="#16478E"/>
<path fill-rule="evenodd" clip-rule="evenodd" d="M28 25.3593C28.3864 24.8124 28.7243 24.2285 29.0078 23.6136C30.0441 21.3657 30.2934 18.8343 29.7155 16.4274C29.1377 14.0205 27.7663 11.8783 25.8224 10.3458C23.8785 8.81336 21.4753 7.98 19 7.98C16.5247 7.98 14.1215 8.81336 12.1776 10.3458C10.2337 11.8783 8.86235 14.0205 8.2845 16.4274C7.70665 18.8343 7.95597 21.3657 8.99228 23.6136C9.27576 24.2285 9.61361 24.8124 10 25.3593V35.7332C6.37222 33.782 3.47303 30.7023 1.74529 26.9545C-0.041445 23.0788 -0.471302 18.7144 0.524987 14.5645C1.52128 10.4147 3.88569 6.72112 7.23723 4.07898C10.5888 1.43683 14.7323 0 19 0C23.2678 0 27.4113 1.43684 30.7628 4.07898C34.1143 6.72112 36.4788 10.4147 37.475 14.5645C38.4713 18.7144 38.0415 23.0788 36.2547 26.9545C34.527 30.7023 31.6278 33.782 28 35.7332V25.3593Z" fill="#7ED1E6"/>
</svg>
